<mxfile host="app.diagrams.net" modified="2021-08-23T11:03:05.176Z" agent="5.0 (Macintosh; Intel Mac OS X 10_15_7) AppleWebKit/537.36 (KHTML, like Gecko) Chrome/92.0.4515.159 Safari/537.36" etag="7LSj2QlK-Iuu3An-jgQM" version="14.8.5" type="github">
  <diagram id="JTHNgpbVftKiAJMIzTxu" name="Page-1">
    <mxGraphModel dx="1886" dy="827" grid="1" gridSize="10" guides="1" tooltips="1" connect="1" arrows="1" fold="1" page="1" pageScale="1" pageWidth="827" pageHeight="1169" math="0" shadow="0">
      <root>
        <mxCell id="0" />
        <mxCell id="1" parent="0" />
        <mxCell id="Nh7IfJzc9g0tIBMXyLNy-3" style="edgeStyle=orthogonalEdgeStyle;rounded=0;orthogonalLoop=1;jettySize=auto;html=1;" edge="1" parent="1" source="Nh7IfJzc9g0tIBMXyLNy-1" target="Nh7IfJzc9g0tIBMXyLNy-2">
          <mxGeometry relative="1" as="geometry" />
        </mxCell>
        <mxCell id="Nh7IfJzc9g0tIBMXyLNy-11" style="edgeStyle=orthogonalEdgeStyle;rounded=0;orthogonalLoop=1;jettySize=auto;html=1;exitX=0.5;exitY=0;exitDx=0;exitDy=0;entryX=1;entryY=0.5;entryDx=0;entryDy=0;" edge="1" parent="1" source="Nh7IfJzc9g0tIBMXyLNy-1" target="Nh7IfJzc9g0tIBMXyLNy-8">
          <mxGeometry relative="1" as="geometry" />
        </mxCell>
        <mxCell id="Nh7IfJzc9g0tIBMXyLNy-15" style="edgeStyle=orthogonalEdgeStyle;rounded=0;orthogonalLoop=1;jettySize=auto;html=1;exitX=1;exitY=0.25;exitDx=0;exitDy=0;entryX=0.013;entryY=0.625;entryDx=0;entryDy=0;entryPerimeter=0;" edge="1" parent="1" source="Nh7IfJzc9g0tIBMXyLNy-1" target="Nh7IfJzc9g0tIBMXyLNy-14">
          <mxGeometry relative="1" as="geometry" />
        </mxCell>
        <mxCell id="Nh7IfJzc9g0tIBMXyLNy-17" style="edgeStyle=orthogonalEdgeStyle;rounded=0;orthogonalLoop=1;jettySize=auto;html=1;exitX=0.75;exitY=0;exitDx=0;exitDy=0;entryX=0.425;entryY=1.025;entryDx=0;entryDy=0;entryPerimeter=0;" edge="1" parent="1" source="Nh7IfJzc9g0tIBMXyLNy-1" target="Nh7IfJzc9g0tIBMXyLNy-16">
          <mxGeometry relative="1" as="geometry" />
        </mxCell>
        <mxCell id="Nh7IfJzc9g0tIBMXyLNy-1" value="ML Trading" style="whiteSpace=wrap;html=1;aspect=fixed;" vertex="1" parent="1">
          <mxGeometry x="360" y="380" width="90" height="90" as="geometry" />
        </mxCell>
        <mxCell id="Nh7IfJzc9g0tIBMXyLNy-5" style="edgeStyle=orthogonalEdgeStyle;rounded=0;orthogonalLoop=1;jettySize=auto;html=1;exitX=0;exitY=0.75;exitDx=0;exitDy=0;entryX=0.5;entryY=0;entryDx=0;entryDy=0;" edge="1" parent="1" source="Nh7IfJzc9g0tIBMXyLNy-2" target="Nh7IfJzc9g0tIBMXyLNy-4">
          <mxGeometry relative="1" as="geometry" />
        </mxCell>
        <mxCell id="Nh7IfJzc9g0tIBMXyLNy-34" style="edgeStyle=orthogonalEdgeStyle;rounded=0;orthogonalLoop=1;jettySize=auto;html=1;exitX=0.5;exitY=1;exitDx=0;exitDy=0;entryX=0.4;entryY=0.038;entryDx=0;entryDy=0;entryPerimeter=0;" edge="1" parent="1" source="Nh7IfJzc9g0tIBMXyLNy-2" target="Nh7IfJzc9g0tIBMXyLNy-33">
          <mxGeometry relative="1" as="geometry" />
        </mxCell>
        <mxCell id="Nh7IfJzc9g0tIBMXyLNy-2" value="Data" style="whiteSpace=wrap;html=1;aspect=fixed;fillColor=#d5e8d4;strokeColor=#82b366;" vertex="1" parent="1">
          <mxGeometry x="180" y="380" width="80" height="80" as="geometry" />
        </mxCell>
        <mxCell id="Nh7IfJzc9g0tIBMXyLNy-4" value="Data gathering" style="ellipse;whiteSpace=wrap;html=1;aspect=fixed;fillColor=#d5e8d4;strokeColor=#82b366;" vertex="1" parent="1">
          <mxGeometry x="100" y="490" width="80" height="80" as="geometry" />
        </mxCell>
        <mxCell id="Nh7IfJzc9g0tIBMXyLNy-6" value="Data preprocessing" style="ellipse;whiteSpace=wrap;html=1;aspect=fixed;fillColor=#d5e8d4;strokeColor=#82b366;" vertex="1" parent="1">
          <mxGeometry x="230" y="630" width="80" height="80" as="geometry" />
        </mxCell>
        <mxCell id="Nh7IfJzc9g0tIBMXyLNy-27" style="edgeStyle=orthogonalEdgeStyle;rounded=0;orthogonalLoop=1;jettySize=auto;html=1;exitX=0;exitY=0.5;exitDx=0;exitDy=0;entryX=1;entryY=0.5;entryDx=0;entryDy=0;" edge="1" parent="1" source="Nh7IfJzc9g0tIBMXyLNy-8" target="Nh7IfJzc9g0tIBMXyLNy-26">
          <mxGeometry relative="1" as="geometry" />
        </mxCell>
        <mxCell id="Nh7IfJzc9g0tIBMXyLNy-32" style="edgeStyle=orthogonalEdgeStyle;rounded=0;orthogonalLoop=1;jettySize=auto;html=1;exitX=0.5;exitY=0;exitDx=0;exitDy=0;entryX=1.013;entryY=0.388;entryDx=0;entryDy=0;entryPerimeter=0;" edge="1" parent="1" source="Nh7IfJzc9g0tIBMXyLNy-8" target="Nh7IfJzc9g0tIBMXyLNy-28">
          <mxGeometry relative="1" as="geometry" />
        </mxCell>
        <mxCell id="Nh7IfJzc9g0tIBMXyLNy-8" value="ML Models" style="whiteSpace=wrap;html=1;aspect=fixed;fillColor=#d5e8d4;strokeColor=#82b366;" vertex="1" parent="1">
          <mxGeometry x="170" y="210" width="80" height="80" as="geometry" />
        </mxCell>
        <mxCell id="Nh7IfJzc9g0tIBMXyLNy-19" style="edgeStyle=orthogonalEdgeStyle;rounded=0;orthogonalLoop=1;jettySize=auto;html=1;exitX=0;exitY=1;exitDx=0;exitDy=0;entryX=0.5;entryY=0;entryDx=0;entryDy=0;" edge="1" parent="1" source="Nh7IfJzc9g0tIBMXyLNy-14" target="Nh7IfJzc9g0tIBMXyLNy-18">
          <mxGeometry relative="1" as="geometry" />
        </mxCell>
        <mxCell id="Nh7IfJzc9g0tIBMXyLNy-21" style="edgeStyle=orthogonalEdgeStyle;rounded=0;orthogonalLoop=1;jettySize=auto;html=1;exitX=1;exitY=0.75;exitDx=0;exitDy=0;entryX=0.5;entryY=0;entryDx=0;entryDy=0;" edge="1" parent="1" source="Nh7IfJzc9g0tIBMXyLNy-14" target="Nh7IfJzc9g0tIBMXyLNy-20">
          <mxGeometry relative="1" as="geometry" />
        </mxCell>
        <mxCell id="Nh7IfJzc9g0tIBMXyLNy-14" value="UI" style="whiteSpace=wrap;html=1;aspect=fixed;fillColor=#d5e8d4;strokeColor=#82b366;" vertex="1" parent="1">
          <mxGeometry x="610" y="470" width="80" height="80" as="geometry" />
        </mxCell>
        <mxCell id="Nh7IfJzc9g0tIBMXyLNy-16" value="Execute trades" style="whiteSpace=wrap;html=1;aspect=fixed;fillColor=#d5e8d4;strokeColor=#82b366;" vertex="1" parent="1">
          <mxGeometry x="490" y="140" width="80" height="80" as="geometry" />
        </mxCell>
        <mxCell id="Nh7IfJzc9g0tIBMXyLNy-18" value="Amazon Lex/slack/&lt;br&gt;Telegram" style="ellipse;whiteSpace=wrap;html=1;aspect=fixed;fillColor=#d5e8d4;strokeColor=#82b366;" vertex="1" parent="1">
          <mxGeometry x="540" y="650" width="80" height="80" as="geometry" />
        </mxCell>
        <mxCell id="Nh7IfJzc9g0tIBMXyLNy-20" value="Dash" style="ellipse;whiteSpace=wrap;html=1;aspect=fixed;fillColor=#dae8fc;strokeColor=#6c8ebf;" vertex="1" parent="1">
          <mxGeometry x="720" y="640" width="80" height="80" as="geometry" />
        </mxCell>
        <mxCell id="Nh7IfJzc9g0tIBMXyLNy-26" value="Sentiment analysis" style="ellipse;whiteSpace=wrap;html=1;aspect=fixed;fillColor=#dae8fc;strokeColor=#6c8ebf;" vertex="1" parent="1">
          <mxGeometry x="40" y="210" width="80" height="80" as="geometry" />
        </mxCell>
        <mxCell id="Nh7IfJzc9g0tIBMXyLNy-28" value="Entry/Exit Signals Models" style="ellipse;whiteSpace=wrap;html=1;aspect=fixed;fillColor=#d5e8d4;strokeColor=#82b366;" vertex="1" parent="1">
          <mxGeometry x="40" y="70" width="80" height="80" as="geometry" />
        </mxCell>
        <mxCell id="Nh7IfJzc9g0tIBMXyLNy-29" value="" style="group" vertex="1" connectable="0" parent="1">
          <mxGeometry x="250" y="20" width="150" height="80" as="geometry" />
        </mxCell>
        <mxCell id="Nh7IfJzc9g0tIBMXyLNy-22" value="" style="whiteSpace=wrap;html=1;aspect=fixed;fillColor=#d5e8d4;strokeColor=#82b366;" vertex="1" parent="Nh7IfJzc9g0tIBMXyLNy-29">
          <mxGeometry width="30" height="30" as="geometry" />
        </mxCell>
        <mxCell id="Nh7IfJzc9g0tIBMXyLNy-23" value="In Scope" style="text;html=1;strokeColor=none;fillColor=none;align=center;verticalAlign=middle;whiteSpace=wrap;rounded=0;" vertex="1" parent="Nh7IfJzc9g0tIBMXyLNy-29">
          <mxGeometry x="70" y="5" width="70" height="20" as="geometry" />
        </mxCell>
        <mxCell id="Nh7IfJzc9g0tIBMXyLNy-24" value="" style="whiteSpace=wrap;html=1;aspect=fixed;fillColor=#dae8fc;strokeColor=#6c8ebf;" vertex="1" parent="Nh7IfJzc9g0tIBMXyLNy-29">
          <mxGeometry y="50" width="30" height="30" as="geometry" />
        </mxCell>
        <mxCell id="Nh7IfJzc9g0tIBMXyLNy-25" value="Good to have" style="text;html=1;strokeColor=none;fillColor=none;align=center;verticalAlign=middle;whiteSpace=wrap;rounded=0;" vertex="1" parent="Nh7IfJzc9g0tIBMXyLNy-29">
          <mxGeometry x="75" y="55" width="75" height="20" as="geometry" />
        </mxCell>
        <mxCell id="Nh7IfJzc9g0tIBMXyLNy-35" style="edgeStyle=orthogonalEdgeStyle;rounded=0;orthogonalLoop=1;jettySize=auto;html=1;exitX=0.5;exitY=1;exitDx=0;exitDy=0;entryX=0.5;entryY=0;entryDx=0;entryDy=0;" edge="1" parent="1" source="Nh7IfJzc9g0tIBMXyLNy-33" target="Nh7IfJzc9g0tIBMXyLNy-6">
          <mxGeometry relative="1" as="geometry" />
        </mxCell>
        <mxCell id="Nh7IfJzc9g0tIBMXyLNy-33" value="Technical Indicators" style="ellipse;whiteSpace=wrap;html=1;aspect=fixed;fillColor=#d5e8d4;strokeColor=#82b366;" vertex="1" parent="1">
          <mxGeometry x="240" y="500" width="80" height="80" as="geometry" />
        </mxCell>
      </root>
    </mxGraphModel>
  </diagram>
</mxfile>
